<svg width="40" height="47" viewBox="0 0 40 47" fill="none" xmlns="http://www.w3.org/2000/svg">
<path d="M39.9229 16.3106C39.9229 12.5174 37.488 8.42509 33.2418 5.08273C29.2111 1.90978 24.261 0.015625 19.9998 0.015625C11.4848 0.015625 0.0767212 8.07213 0.0767212 16.311C0.0767212 18.9086 3.76011 23.8997 4.5428 24.9303C6.34189 27.5138 8.7634 32.0545 8.27529 33.6446C6.89777 38.1275 6.89371 41.5491 8.26271 43.8136C9.38055 45.6632 10.9934 46.019 11.1736 46.0534C11.2494 46.0679 11.3257 46.0752 11.4028 46.0752H28.5964C28.667 46.0752 28.7376 46.0692 28.807 46.057C28.9876 46.0255 30.6045 45.6952 31.7308 43.8649C33.1169 41.6133 33.1144 38.1748 31.7243 33.645C31.2318 32.0399 33.6062 27.5906 35.4568 24.9295C36.2403 23.8977 39.9229 18.9078 39.9229 16.3106ZM33.4723 23.5253C32.6141 24.7548 28.385 31.0571 29.3966 34.3537C30.839 39.0533 30.3574 41.3906 29.6992 42.5238C29.2403 43.3138 28.6508 43.5766 28.4382 43.649H11.5651C11.3728 43.5787 10.8043 43.3167 10.3479 42.5622C9.66254 41.4278 9.15008 39.0832 10.6027 34.3541C11.6154 31.0575 7.38548 24.7548 6.52732 23.5253C6.51799 23.5116 6.50784 23.4982 6.49811 23.4849C4.84224 21.3081 2.51081 17.6432 2.51081 16.3106C2.51081 9.61414 12.775 2.44103 19.9994 2.44103C28.0085 2.44103 37.488 9.95901 37.488 16.3106C37.488 17.6411 35.1566 21.3065 33.5007 23.4849C33.4914 23.4978 33.4812 23.5116 33.4723 23.5253Z" fill="#080029"/>
<path d="M18.3946 37.8101H15.9601V41.091H18.3946V37.8101Z" fill="#080029"/>
<path d="M24.0394 37.8101H21.6049V41.091H24.0394V37.8101Z" fill="#080029"/>
<path d="M22.8221 25.4653H17.1774V27.8911H22.8221V25.4653Z" fill="#080029"/>
<path d="M22.8221 30.3867H17.1774V32.8125H22.8221V30.3867Z" fill="#080029"/>
<path d="M7.50585 17.108L12.3247 21.9097L14.0461 20.1944L9.22728 15.3927L7.50585 17.108Z" fill="#080029"/>
<path d="M25.9556 20.1936L27.6768 21.9092L32.4964 17.1082L30.7752 15.3927L25.9556 20.1936Z" fill="#080029"/>
<path d="M25.5281 11.9272H14.4714V14.3531H25.5281V11.9272Z" fill="#080029"/>
<path d="M25.5281 7.07568H14.4714V9.50149H25.5281V7.07568Z" fill="#080029"/>
</svg>
