<svg width="40" height="46" viewBox="0 0 40 46" fill="none" xmlns="http://www.w3.org/2000/svg">
<path d="M39.8516 27.843C39.6875 24.9424 38.9275 19.1901 37.9827 16.3782C35.9453 10.3099 29.8686 0.0400391 20.0153 0.0400391C10.1634 0.0400391 4.08563 10.3099 2.04785 16.3782C1.1023 19.1927 0.342668 24.9438 0.179335 27.8433C-0.0688131 32.2493 1.56156 36.5485 4.77045 39.9491C8.37526 43.7693 13.4364 45.9603 18.6564 45.9603H21.3749C26.5942 45.9603 31.6553 43.7693 35.2601 39.9491C38.469 36.5481 40.0997 32.2493 39.8516 27.843ZM33.6449 38.42C30.5045 41.7476 25.9179 43.7341 21.3745 43.7341H18.656C14.1127 43.7341 9.52526 41.7476 6.38526 38.4196C3.60045 35.4686 2.18452 31.757 2.39785 27.9683C2.55822 25.1316 3.30378 19.6193 4.15415 17.0871C5.876 11.9607 11.4067 2.26547 20.0156 2.26547C28.626 2.26547 34.1556 11.9607 35.8767 17.0875C36.7267 19.6171 37.473 25.1301 37.6334 27.9683C37.8464 31.757 36.4301 35.4689 33.6449 38.42Z" fill="#080029"/>
<path d="M25.9615 13.6831C23.7715 13.6831 21.6959 14.421 20.0152 15.7802C18.3345 14.421 16.2589 13.6831 14.0685 13.6831C8.83408 13.6831 4.57556 17.9485 4.57556 23.1914C4.57556 26.677 6.43889 29.8076 9.41445 31.4751C9.1063 32.1744 8.94704 32.907 8.94704 33.6415C8.94704 37.8223 13.8085 41.0969 20.0152 41.0969C26.2219 41.0969 31.083 37.8223 31.083 33.6415C31.083 32.907 30.9233 32.174 30.6156 31.4751C33.5911 29.8076 35.4541 26.6766 35.4541 23.1914C35.4545 17.9485 31.1959 13.6831 25.9615 13.6831ZM28.6474 29.9538L27.3196 30.4831L28.1593 31.6417C28.6248 32.2838 28.8611 32.9567 28.8611 33.6415C28.8611 36.4765 24.81 38.8711 20.0156 38.8711C15.2207 38.8711 11.1696 36.4765 11.1696 33.6415C11.1696 32.9571 11.4059 32.2845 11.8719 31.6417L12.7115 30.4831L11.3841 29.9538C8.59852 28.8431 6.79889 26.1884 6.79889 23.1914C6.79889 19.176 10.0604 15.9089 14.0696 15.9089C16.02 15.9089 17.8519 16.6735 19.2278 18.0613L20.0163 18.857L20.8048 18.0613C22.1807 16.6735 24.0122 15.9089 25.9626 15.9089C29.9715 15.9089 33.2333 19.176 33.2333 23.1914C33.2322 26.1884 31.4326 28.8431 28.6474 29.9538Z" fill="#080029"/>
<path d="M13.3482 24.2892C14.4476 24.2892 15.3389 23.3965 15.3389 22.2952C15.3389 21.194 14.4476 20.3013 13.3482 20.3013C12.2487 20.3013 11.3574 21.194 11.3574 22.2952C11.3574 23.3965 12.2487 24.2892 13.3482 24.2892Z" fill="#080029"/>
<path d="M26.6823 24.2892C27.7817 24.2892 28.673 23.3965 28.673 22.2952C28.673 21.194 27.7817 20.3013 26.6823 20.3013C25.5828 20.3013 24.6915 21.194 24.6915 22.2952C24.6915 23.3965 25.5828 24.2892 26.6823 24.2892Z" fill="#080029"/>
<path d="M19.186 28.2876H16.9637V31.2884H19.186V28.2876Z" fill="#080029"/>
<path d="M23.0667 28.2876H20.8445V31.2884H23.0667V28.2876Z" fill="#080029"/>
</svg>
