<svg width="38" height="49" viewBox="0 0 38 49" fill="none" xmlns="http://www.w3.org/2000/svg">
<g clip-path="url(#clip0)">
<path d="M37.702 42.5642L34.9303 17.2029C34.8868 8.1535 27.7659 0.805664 19.0195 0.805664C10.273 0.805664 3.15214 8.15398 3.10904 17.2029L0.336893 42.5642C0.290552 42.9885 0.428187 43.4124 0.713187 43.721C0.998187 44.0301 1.40182 44.1948 1.81148 44.1631C1.84021 44.1612 4.67492 43.9663 7.22787 43.9663C9.02731 43.9663 9.9217 44.0623 10.3555 44.1434C12.527 44.5476 16.7659 47.3969 18.2159 48.461C18.4569 48.6372 18.7382 48.726 19.0195 48.726C19.3012 48.726 19.5839 48.6367 19.8249 48.4591C21.2295 47.4247 25.3414 44.646 27.4698 44.2197C27.9597 44.1218 28.9958 44.0052 31.153 44.0052C33.6346 44.0052 36.2121 44.1621 36.2376 44.1641C36.645 44.1837 37.0463 44.0253 37.329 43.7172C37.6117 43.409 37.7484 42.9866 37.702 42.5642ZM31.153 41.1252C29.2174 41.1252 27.8406 41.2125 26.942 41.3925C24.4488 41.8917 20.6915 44.3676 19.0176 45.5373C17.3039 44.3441 13.4066 41.7857 10.8467 41.3085C10.0426 41.1588 8.85863 41.0863 7.22694 41.0863C5.82002 41.0863 4.36072 41.141 3.28375 41.1943L5.8798 17.4482C5.88582 17.3945 5.8886 17.3402 5.8886 17.2865C5.8886 9.78694 11.7786 3.68614 19.019 3.68614C26.2589 3.68614 32.1494 9.78694 32.1494 17.2865C32.1494 17.3407 32.1526 17.3949 32.1582 17.4482L34.7552 41.2073C33.7709 41.166 32.4608 41.1252 31.153 41.1252Z" fill="#0F0049"/>
<path d="M10.678 19.0648C12.0536 19.0648 13.1688 17.9097 13.1688 16.4848C13.1688 15.0599 12.0536 13.9048 10.678 13.9048C9.30233 13.9048 8.18713 15.0599 8.18713 16.4848C8.18713 17.9097 9.30233 19.0648 10.678 19.0648Z" fill="#0F0049"/>
<path d="M27.3609 19.0648C28.7366 19.0648 29.8518 17.9097 29.8518 16.4848C29.8518 15.0599 28.7366 13.9048 27.3609 13.9048C25.9852 13.9048 24.8701 15.0599 24.8701 16.4848C24.8701 17.9097 25.9852 19.0648 27.3609 19.0648Z" fill="#0F0049"/>
<path d="M19.0195 36.8442L25.2236 20.2031H12.8143L19.0195 36.8442ZM19.0195 28.8503L16.8692 23.0831H21.1697L19.0195 28.8503Z" fill="#0F0049"/>
</g>
<defs>
<clipPath id="clip0">
<rect width="38" height="48" fill="white" transform="translate(0 0.766113)"/>
</clipPath>
</defs>
</svg>
