<svg width="50" height="38" viewBox="0 0 50 38" fill="none" xmlns="http://www.w3.org/2000/svg">
<path fill-rule="evenodd" clip-rule="evenodd" d="M20.3544 35.0856C20.6194 34.5556 21.2638 34.3407 21.7938 34.6057C22.8907 35.1542 25.8273 35.9295 28.4749 34.6057C29.0049 34.3407 29.6494 34.5556 29.9144 35.0856C30.1793 35.6156 29.9645 36.26 29.4345 36.525C25.9696 38.2575 22.2842 37.25 20.8342 36.525C20.3042 36.26 20.0894 35.6156 20.3544 35.0856Z" fill="black"/>
<path d="M8.78687 5.81018C7.47566 8.69216 4.9926 9.64348 3.04848 9.12255C1.10436 8.60163 -0.417597 5.96606 0.103235 4.02229C0.624067 2.07852 3.2599 0.557038 5.20402 1.07796C7.14814 1.59889 9.3077 3.86641 8.78687 5.81018Z" fill="black"/>
<path d="M41.1329 5.85941C42.4448 8.74325 44.9291 9.69528 46.8741 9.17411C48.8191 8.65295 50.3417 6.01581 49.8205 4.0708C49.2994 2.12579 46.6622 0.603237 44.7172 1.1244C42.7722 1.64556 40.6117 3.9144 41.1329 5.85941Z" fill="black"/>
<path d="M13.3505 32.9077C10.6028 32.9077 8.43971 32.2354 6.86125 30.8908C5.28278 29.5462 4.44484 27.5682 4.3474 24.9569C4.32791 24.3918 4.31817 23.5539 4.31817 22.4431C4.31817 21.3128 4.32791 20.4651 4.3474 19.9C4.44484 17.3277 5.29253 15.3498 6.89048 13.9662C8.50791 12.5631 10.6612 11.8615 13.3505 11.8615C16.0397 11.8615 18.193 12.5631 19.8105 13.9662C21.4279 15.3498 22.2756 17.3277 22.3536 19.9C22.3925 21.0303 22.412 21.878 22.412 22.4431C22.412 22.9887 22.3925 23.8267 22.3536 24.9569C22.2561 27.5682 21.4182 29.5462 19.8397 30.8908C18.2612 32.2354 16.0982 32.9077 13.3505 32.9077ZM13.3505 28.6985C14.4223 28.6985 15.27 28.3769 15.8936 27.7339C16.5366 27.0908 16.8777 26.1067 16.9166 24.7815C16.9556 23.6513 16.9751 22.8523 16.9751 22.3846C16.9751 21.878 16.9556 21.079 16.9166 19.9877C16.8777 18.6626 16.5366 17.6785 15.8936 17.0354C15.2505 16.3923 14.4028 16.0708 13.3505 16.0708C12.2982 16.0708 11.4505 16.3923 10.8074 17.0354C10.1838 17.6785 9.84278 18.6626 9.78432 19.9877C9.76484 20.5333 9.75509 21.3323 9.75509 22.3846C9.75509 23.4174 9.76484 24.2164 9.78432 24.7815C9.84278 26.1067 10.1838 27.0908 10.8074 27.7339C11.431 28.3769 12.2787 28.6985 13.3505 28.6985Z" fill="black"/>
<path d="M37.0833 32.9077C34.3357 32.9077 32.1726 32.2354 30.5941 30.8908C29.0157 29.5462 28.1777 27.5682 28.0803 24.9569C28.0608 24.3918 28.051 23.5539 28.051 22.4431C28.051 21.3128 28.0608 20.4651 28.0803 19.9C28.1777 17.3277 29.0254 15.3498 30.6233 13.9662C32.2408 12.5631 34.3941 11.8615 37.0833 11.8615C39.7726 11.8615 41.9259 12.5631 43.5433 13.9662C45.1608 15.3498 46.0085 17.3277 46.0864 19.9C46.1254 21.0303 46.1449 21.878 46.1449 22.4431C46.1449 22.9887 46.1254 23.8267 46.0864 24.9569C45.989 27.5682 45.151 29.5462 43.5726 30.8908C41.9941 32.2354 39.831 32.9077 37.0833 32.9077ZM37.0833 28.6985C38.1551 28.6985 39.0028 28.3769 39.6264 27.7339C40.2695 27.0908 40.6105 26.1067 40.6495 24.7815C40.6885 23.6513 40.708 22.8523 40.708 22.3846C40.708 21.878 40.6885 21.079 40.6495 19.9877C40.6105 18.6626 40.2695 17.6785 39.6264 17.0354C38.9833 16.3923 38.1357 16.0708 37.0833 16.0708C36.031 16.0708 35.1833 16.3923 34.5403 17.0354C33.9167 17.6785 33.5757 18.6626 33.5172 19.9877C33.4977 20.5333 33.488 21.3323 33.488 22.3846C33.488 23.4174 33.4977 24.2164 33.5172 24.7815C33.5757 26.1067 33.9167 27.0908 34.5403 27.7339C35.1639 28.3769 36.0116 28.6985 37.0833 28.6985Z" fill="black"/>
</svg>
