<svg width="128" height="46" viewBox="0 0 128 46" fill="none" xmlns="http://www.w3.org/2000/svg">
<path d="M66.0841 14.5663L72.1738 14.1771C72.3127 15.1615 72.5674 15.8941 72.9842 16.4206C73.6557 17.2448 74.5819 17.6569 75.8091 17.6569C76.7121 17.6569 77.4299 17.4508 77.9162 17.0159C78.3793 16.6725 78.6572 16.123 78.6572 15.5507C78.6572 15.0012 78.4025 14.4747 77.9625 14.1313C77.4994 13.7192 76.4111 13.3071 74.6977 12.9408C71.8959 12.3227 69.8815 11.4986 68.7006 10.4455C67.5197 9.46106 66.8482 8.01878 66.8945 6.48492C66.8945 5.43183 67.2187 4.37874 67.8207 3.50879C68.5153 2.52438 69.4647 1.74601 70.5993 1.31103C71.8265 0.784486 73.5399 0.509766 75.6933 0.509766C78.333 0.509766 80.3475 0.990525 81.7367 1.97494C83.126 2.93646 83.9596 4.4932 84.2143 6.62228L78.1941 6.96568C78.032 6.04995 77.7078 5.38604 77.1752 4.95107C76.6427 4.5161 75.948 4.31006 75.045 4.31006C74.304 4.31006 73.7483 4.47031 73.3778 4.76792C73.0305 5.04264 72.799 5.45472 72.8221 5.91259C72.8221 6.25599 73.0074 6.5765 73.2852 6.78254C73.5862 7.05726 74.304 7.30908 75.4386 7.53802C78.2404 8.13324 80.2317 8.72847 81.4589 9.34659C82.6861 9.96471 83.566 10.7202 84.0985 11.613C84.6543 12.5288 84.9321 13.5819 84.909 14.6578C84.909 15.9399 84.5385 17.2219 83.7975 18.2979C83.0334 19.4197 81.9683 20.2896 80.7179 20.8161C79.3981 21.3885 77.731 21.6861 75.7396 21.6861C72.2201 21.6861 69.7888 21.0222 68.4227 19.6715C67.0566 18.3208 66.2462 16.6267 66.0841 14.5663ZM1.45888 21.3427V0.876059H12.1333C14.1014 0.876059 15.6296 1.03631 16.6716 1.37971C17.6904 1.70022 18.5935 2.36413 19.1955 3.25696C19.867 4.24138 20.1912 5.38604 20.168 6.5765C20.2375 8.59111 19.1955 10.5142 17.4126 11.5215C16.7179 11.9106 15.9538 12.1854 15.1665 12.3227C15.7454 12.483 16.3243 12.7577 16.8337 13.0782C17.2273 13.3987 17.5515 13.765 17.8525 14.1542C18.1998 14.5434 18.5008 14.9783 18.7556 15.4362L21.8583 21.3656H14.5877L11.1608 15.0699C10.7208 14.2687 10.3503 13.7421 10.003 13.4903C9.53992 13.1698 8.98421 13.0095 8.42849 13.0095H7.87277V21.3198H1.45888V21.3427ZM7.87277 9.16344H10.5819C11.1608 9.11766 11.7165 9.02608 12.2722 8.88872C12.689 8.82004 13.0595 8.59111 13.3142 8.24771C13.9393 7.42355 13.8467 6.25599 13.0826 5.5463C12.6658 5.2029 11.8554 5.01975 10.6977 5.01975H7.87277V9.16344ZM0.00012207 38.879L6.08985 38.4898C6.22878 39.4742 6.48348 40.2068 6.90027 40.7333C7.5486 41.5575 8.49795 41.9925 9.72516 41.9925C10.6282 41.9925 11.346 41.7864 11.8323 41.3515C12.2953 40.9852 12.5732 40.4586 12.5732 39.8863C12.5732 39.3368 12.3185 38.8103 11.8786 38.4669C11.4155 38.0548 10.3272 37.6427 8.59057 37.2764C5.78883 36.6583 3.77436 35.8342 2.59347 34.7811C1.41257 33.7967 0.741077 32.3544 0.787387 30.8205C0.787387 29.7674 1.11155 28.7143 1.71358 27.8444C2.40823 26.86 3.35758 26.0816 4.49216 25.6466C5.71937 25.1201 7.43283 24.8454 9.58623 24.8454C12.2259 24.8454 14.2404 25.3261 15.6296 26.3105C17.0189 27.295 17.8294 28.8288 18.0841 30.9579L12.0638 31.3013C11.9017 30.3856 11.5775 29.7217 11.045 29.2867C10.5356 28.8517 9.81778 28.6457 8.91474 28.6686C8.17379 28.6686 7.61807 28.8288 7.24759 29.1493C6.87711 29.424 6.66872 29.8361 6.69187 30.294C6.69187 30.6374 6.87711 30.9579 7.15497 31.1639C7.45598 31.4387 8.17379 31.6905 9.30837 31.9194C12.1101 32.5146 14.1014 33.1099 15.3286 33.728C16.5558 34.3461 17.4357 35.1016 17.9683 35.9944C18.524 36.9102 18.8019 37.9632 18.8019 39.0163C18.8019 40.2984 18.4082 41.5575 17.6904 42.6335C16.9263 43.7553 15.8612 44.6252 14.6108 45.1518C13.291 45.7241 11.6239 46.0217 9.63254 46.0217C6.113 46.0217 3.68174 45.3578 2.31561 44.0071C0.949471 42.6335 0.185361 40.9394 0.00012207 38.879Z" fill="white"/>
<path d="M30.796 37.277L36.3994 38.9482C36.0984 40.3447 35.4732 41.6725 34.6165 42.8401C33.8292 43.8703 32.7873 44.6715 31.6064 45.1981C30.4023 45.7246 28.8741 45.9994 27.0217 45.9994C24.7757 45.9994 22.9233 45.6788 21.5109 45.0378C20.0753 44.3968 18.8481 43.2521 17.8061 41.6267C16.7641 40.0013 16.2547 37.918 16.2547 35.3768C16.2547 31.9886 17.1578 29.3788 18.987 27.5702C20.8162 25.7617 23.3864 24.8459 26.7207 24.8459C29.3372 24.8459 31.3748 25.3725 32.8799 26.4027C34.3618 27.4558 35.4732 29.0583 36.2142 31.2103L30.5644 32.4465C30.4255 31.9657 30.2171 31.485 29.9392 31.0729C29.5919 30.5921 29.152 30.2258 28.6194 29.9511C28.0868 29.6764 27.4848 29.5619 26.8828 29.5619C25.424 29.5619 24.3126 30.1343 23.5485 31.3018C22.9696 32.1489 22.6686 33.4996 22.6686 35.3311C22.6686 37.5975 23.0159 39.1542 23.7106 40.0013C24.4052 40.8484 25.3777 41.2604 26.6512 41.2604C27.8784 41.2604 28.8046 40.917 29.4298 40.2531C30.055 39.5434 30.5181 38.559 30.796 37.277ZM43.8785 25.1893H50.2692V32.3549H57.262V25.1893H63.699V45.656H57.262V37.3686H50.2692V45.656H43.8785V25.1893Z" fill="white"/>
<path d="M62.8191 35.4224C62.8191 32.08 63.7685 29.4701 65.644 27.6158C67.5196 25.7614 70.1592 24.8228 73.5167 24.8228C76.9667 24.8228 79.6064 25.7385 81.4819 27.57C83.3575 29.4014 84.2837 31.9655 84.2837 35.2621C84.2837 37.6659 83.8669 39.6119 83.0565 41.1457C82.2692 42.6567 81.042 43.8929 79.5369 44.7171C77.9855 45.5641 76.0637 45.9991 73.7714 45.9991C71.4327 45.9991 69.5109 45.6328 67.9827 44.9002C66.4081 44.1218 65.1115 42.9085 64.2547 41.4204C63.3054 39.8179 62.8191 37.8262 62.8191 35.4224ZM69.2099 35.4453C69.2099 37.5057 69.6035 38.9937 70.3676 39.9095C71.1317 40.8023 72.1968 41.2602 73.5398 41.2602C74.906 41.2602 75.9711 40.8252 76.7352 39.9324C77.4993 39.0395 77.8698 37.4599 77.8698 35.1706C77.8698 33.2475 77.4761 31.8281 76.6889 30.9582C75.9016 30.0653 74.8365 29.6304 73.4935 29.6304C72.3126 29.5846 71.178 30.0882 70.3908 30.9811C69.6035 31.8739 69.2099 33.362 69.2099 35.4453ZM90.8365 35.4224C90.8365 32.08 91.7858 29.4701 93.6614 27.6158C95.5369 25.7614 98.1766 24.8228 101.534 24.8228C104.984 24.8228 107.647 25.7385 109.499 27.57C111.352 29.4014 112.301 31.9655 112.301 35.2621C112.301 37.6659 111.884 39.6119 111.074 41.1457C110.287 42.6567 109.059 43.8929 107.554 44.7171C106.003 45.5641 104.081 45.9991 101.789 45.9991C99.4501 45.9991 97.5283 45.6328 96 44.9002C94.4255 44.1218 93.1288 42.9085 92.2721 41.4204C91.3228 39.8179 90.8365 37.8262 90.8365 35.4224ZM97.2272 35.4453C97.2272 37.5057 97.6209 38.9937 98.385 39.9095C99.1491 40.8023 100.214 41.2602 101.557 41.2602C102.923 41.2602 103.988 40.8252 104.753 39.9324C105.517 39.0395 105.887 37.4599 105.887 35.1706C105.887 33.2475 105.494 31.8281 104.706 30.9582C103.919 30.0653 102.854 29.6304 101.511 29.6304C100.33 29.5846 99.1722 30.0882 98.4081 30.9811C97.6209 31.8739 97.2272 33.362 97.2272 35.4453Z" fill="white"/>
<path fill-rule="evenodd" clip-rule="evenodd" d="M108.52 6.19557C104.796 1.29879 96.7515 0.849092 90.4904 5.52486C84.2301 10.2 82.4544 17.979 86.174 22.8704C89.8977 27.7672 97.9422 28.2169 104.203 23.5411C110.464 18.866 112.239 11.087 108.52 6.19557ZM89.7877 4.58395C96.384 -0.342129 105.217 -0.0882382 109.454 5.48475C113.696 11.0631 111.503 19.5554 104.906 24.4821C98.3097 29.4081 89.4772 29.1542 85.2393 23.5813C80.9974 18.003 83.1906 9.51064 89.7877 4.58395Z" fill="white"/>
<path d="M90.86 13.0324L93.1754 11.4298L96.0235 15.4362C96.5098 16.0772 96.8802 16.764 97.1581 17.5194C97.3202 18.0918 97.2739 18.7099 97.0423 19.2593C96.7413 19.9461 96.255 20.5185 95.6067 20.9305C94.8426 21.4571 94.1943 21.7547 93.6385 21.8463C93.106 21.9379 92.5503 21.8463 92.0409 21.6173C91.4851 21.3426 90.9989 20.9534 90.6284 20.4498L92.6197 18.6183C92.7818 18.8701 92.9902 19.0991 93.2218 19.2822C93.3838 19.3967 93.5691 19.4654 93.7775 19.4654C93.9396 19.4654 94.1016 19.3967 94.2174 19.3051C94.449 19.1678 94.6111 18.893 94.5879 18.6183C94.5184 18.2291 94.3564 17.84 94.1016 17.5423L90.86 13.0324ZM97.8064 15.5735L99.9135 13.9252C100.145 14.1999 100.446 14.406 100.77 14.5204C101.233 14.6578 101.72 14.5662 102.113 14.2686C102.391 14.0854 102.623 13.8336 102.715 13.5131C102.854 13.101 102.623 12.6432 102.206 12.5058C102.136 12.4829 102.067 12.46 101.997 12.46C101.72 12.4371 101.233 12.5516 100.516 12.8492C99.3347 13.33 98.4085 13.5131 97.7138 13.4444C97.0423 13.3758 96.4171 13.0324 96.0467 12.46C95.7688 12.0708 95.6299 11.613 95.6067 11.1551C95.6067 10.6286 95.7456 10.102 96.0467 9.66703C96.4866 9.04891 97.0192 8.52237 97.6675 8.11029C98.64 7.44638 99.4967 7.12587 100.238 7.12587C100.979 7.12587 101.673 7.46927 102.322 8.17897L100.238 9.80439C99.8209 9.27785 99.0336 9.16338 98.5011 9.57546L98.4316 9.64414C98.2001 9.7815 98.038 9.98754 97.9454 10.2394C97.8759 10.4225 97.9222 10.6286 98.038 10.7888C98.1306 10.9033 98.2695 10.9948 98.4316 10.9948C98.6168 11.0177 98.941 10.9262 99.4041 10.7201C100.562 10.2394 101.442 9.96465 102.044 9.87307C102.553 9.7815 103.086 9.82729 103.572 10.0333C104.012 10.2165 104.382 10.537 104.637 10.9262C104.961 11.384 105.147 11.9335 105.17 12.5058C105.193 13.101 105.031 13.6734 104.707 14.177C104.29 14.7951 103.757 15.3217 103.132 15.7338C101.859 16.6037 100.817 16.97 99.983 16.8326C99.0799 16.6953 98.339 16.2374 97.8064 15.5735Z" fill="white"/>
<path d="M118.02 25.1893V40.6194H128V45.6559H111.607V25.1893H118.02Z" fill="white"/>
</svg>
