<svg xmlns="http://www.w3.org/2000/svg" xmlns:xlink="http://www.w3.org/1999/xlink">

<!-- LOGO -->
  <symbol id="logo" viewBox="0 0 50 38">
    <g>
      <path d="M20.3544 35.0856C20.6194 34.5556 21.2638 34.3407 21.7938 34.6057C22.8907 35.1542 25.8273 35.9295 28.4749 34.6057C29.0049 34.3407 29.6494 34.5556 29.9144 35.0856C30.1793 35.6156 29.9645 36.26 29.4345 36.525C25.9696 38.2575 22.2842 37.25 20.8342 36.525C20.3042 36.26 20.0894 35.6156 20.3544 35.0856Z"/>
      <path d="M8.78687 5.81018C7.47566 8.69216 4.9926 9.64348 3.04848 9.12255C1.10436 8.60163 -0.417597 5.96606 0.103235 4.02229C0.624067 2.07852 3.2599 0.557038 5.20402 1.07796C7.14814 1.59889 9.3077 3.86641 8.78687 5.81018Z"/>
      <path d="M41.1329 5.85941C42.4448 8.74325 44.9291 9.69528 46.8741 9.17411C48.8191 8.65295 50.3417 6.01581 49.8205 4.0708C49.2994 2.12579 46.6622 0.603237 44.7172 1.1244C42.7722 1.64556 40.6117 3.9144 41.1329 5.85941Z"/>
      <path d="M13.3505 32.9077C10.6028 32.9077 8.43971 32.2354 6.86125 30.8908C5.28278 29.5462 4.44484 27.5682 4.3474 24.9569C4.32791 24.3918 4.31817 23.5539 4.31817 22.4431C4.31817 21.3128 4.32791 20.4651 4.3474 19.9C4.44484 17.3277 5.29253 15.3498 6.89048 13.9662C8.50791 12.5631 10.6612 11.8615 13.3505 11.8615C16.0397 11.8615 18.193 12.5631 19.8105 13.9662C21.4279 15.3498 22.2756 17.3277 22.3536 19.9C22.3925 21.0303 22.412 21.878 22.412 22.4431C22.412 22.9887 22.3925 23.8267 22.3536 24.9569C22.2561 27.5682 21.4182 29.5462 19.8397 30.8908C18.2612 32.2354 16.0982 32.9077 13.3505 32.9077ZM13.3505 28.6985C14.4223 28.6985 15.27 28.3769 15.8936 27.7339C16.5366 27.0908 16.8777 26.1067 16.9166 24.7815C16.9556 23.6513 16.9751 22.8523 16.9751 22.3846C16.9751 21.878 16.9556 21.079 16.9166 19.9877C16.8777 18.6626 16.5366 17.6785 15.8936 17.0354C15.2505 16.3923 14.4028 16.0708 13.3505 16.0708C12.2982 16.0708 11.4505 16.3923 10.8074 17.0354C10.1838 17.6785 9.84278 18.6626 9.78432 19.9877C9.76484 20.5333 9.75509 21.3323 9.75509 22.3846C9.75509 23.4174 9.76484 24.2164 9.78432 24.7815C9.84278 26.1067 10.1838 27.0908 10.8074 27.7339C11.431 28.3769 12.2787 28.6985 13.3505 28.6985Z"/>
      <path d="M37.0833 32.9077C34.3357 32.9077 32.1726 32.2354 30.5941 30.8908C29.0157 29.5462 28.1777 27.5682 28.0803 24.9569C28.0608 24.3918 28.051 23.5539 28.051 22.4431C28.051 21.3128 28.0608 20.4651 28.0803 19.9C28.1777 17.3277 29.0254 15.3498 30.6233 13.9662C32.2408 12.5631 34.3941 11.8615 37.0833 11.8615C39.7726 11.8615 41.9259 12.5631 43.5433 13.9662C45.1608 15.3498 46.0085 17.3277 46.0864 19.9C46.1254 21.0303 46.1449 21.878 46.1449 22.4431C46.1449 22.9887 46.1254 23.8267 46.0864 24.9569C45.989 27.5682 45.151 29.5462 43.5726 30.8908C41.9941 32.2354 39.831 32.9077 37.0833 32.9077ZM37.0833 28.6985C38.1551 28.6985 39.0028 28.3769 39.6264 27.7339C40.2695 27.0908 40.6105 26.1067 40.6495 24.7815C40.6885 23.6513 40.708 22.8523 40.708 22.3846C40.708 21.878 40.6885 21.079 40.6495 19.9877C40.6105 18.6626 40.2695 17.6785 39.6264 17.0354C38.9833 16.3923 38.1357 16.0708 37.0833 16.0708C36.031 16.0708 35.1833 16.3923 34.5403 17.0354C33.9167 17.6785 33.5757 18.6626 33.5172 19.9877C33.4977 20.5333 33.488 21.3323 33.488 22.3846C33.488 23.4174 33.4977 24.2164 33.5172 24.7815C33.5757 26.1067 33.9167 27.0908 34.5403 27.7339C35.1639 28.3769 36.0116 28.6985 37.0833 28.6985Z"/>
    </g>
  </symbol>
<symbol id="yem-logo" viewBox="0 0 118 62">
  <g>
    <path d="M85.2401 18.3932V26.3458C85.2401 28.0872 84.7542 29.421 83.7827 30.3468C82.811 31.2837 81.4695 31.7522 79.7582 31.7522C78.7755 31.7522 77.8757 31.6144 77.0587 31.3388C76.2416 31.0743 75.546 30.694 74.972 30.198L76.0154 28.214C77.0642 29.0627 78.2898 29.4871 79.692 29.4871C80.6635 29.4871 81.3813 29.2446 81.845 28.7596C82.3197 28.2636 82.5571 27.5031 82.5571 26.478V25.7671C81.7842 26.715 80.6912 27.189 79.278 27.189C77.8095 27.189 76.6778 26.7756 75.8829 25.949C75.0989 25.1112 74.707 23.9099 74.707 22.3447V18.3932H77.39V22.1794C77.39 23.0832 77.6053 23.7666 78.0359 24.2295C78.4664 24.6924 79.0736 24.9239 79.8576 24.9239C80.6857 24.9239 81.3425 24.6814 81.8284 24.1964C82.3142 23.7115 82.5571 22.9784 82.5571 21.9975V18.3932H85.2401ZM97.3656 28.9746C96.8135 29.3493 96.1179 29.6414 95.2789 29.8508C94.4508 30.0603 93.5674 30.165 92.629 30.165C91.4587 30.165 90.465 30.0216 89.648 29.7351C88.8309 29.4375 88.2126 29.0296 87.7931 28.5116C87.3735 27.9826 87.1638 27.3819 87.1638 26.7095C87.1638 26.0923 87.3349 25.5467 87.6772 25.0727C88.0194 24.5987 88.4887 24.246 89.0849 24.0146C88.6321 23.772 88.2789 23.4414 88.025 23.0226C87.782 22.6037 87.6606 22.1352 87.6606 21.6172C87.6606 20.989 87.8538 20.4158 88.2403 19.8978C88.6267 19.3797 89.2118 18.9664 89.9958 18.6578C90.7796 18.3491 91.7402 18.1948 92.8774 18.1948C93.6282 18.1948 94.3624 18.272 95.0801 18.4263C95.7977 18.5696 96.4216 18.768 96.9516 19.0215L96.2063 21.0716C95.1905 20.5976 94.114 20.3607 92.9768 20.3607C92.1156 20.3607 91.4641 20.493 91.0226 20.7575C90.592 21.011 90.3767 21.3582 90.3767 21.7991C90.3767 22.2069 90.5201 22.5211 90.8073 22.7415C91.1054 22.9509 91.5525 23.0556 92.1488 23.0556H95.312V25.1719H91.9831C91.3096 25.1719 90.7907 25.2876 90.4264 25.5191C90.062 25.7506 89.8798 26.0867 89.8798 26.5276C89.8798 26.9906 90.1117 27.3543 90.5754 27.6188C91.0501 27.8723 91.7733 27.9991 92.745 27.9991C93.4295 27.9991 94.114 27.9109 94.7986 27.7346C95.4831 27.5472 96.0627 27.2882 96.5375 26.9575L97.3656 28.9746ZM112.171 18.1948C113.541 18.1948 114.606 18.5971 115.368 19.4018C116.13 20.1954 116.511 21.3472 116.511 22.8572V29.9666H113.828V22.9399C113.828 22.1243 113.612 21.5125 113.182 21.1047C112.763 20.6859 112.205 20.4764 111.509 20.4764C110.747 20.4764 110.14 20.6968 109.687 21.1378C109.235 21.5676 109.008 22.2235 109.008 23.1052V29.9666H106.325V22.9399C106.325 22.1243 106.127 21.5125 105.729 21.1047C105.332 20.6859 104.79 20.4764 104.106 20.4764C103.355 20.4764 102.753 20.6968 102.301 21.1378C101.848 21.5676 101.622 22.2235 101.622 23.1052V29.9666H98.9387V18.3932H101.539V19.8151C101.892 19.2971 102.361 18.9003 102.947 18.6247C103.532 18.3381 104.205 18.1948 104.967 18.1948C105.762 18.1948 106.458 18.3436 107.054 18.6412C107.65 18.9278 108.109 19.3467 108.429 19.8978C108.826 19.3467 109.345 18.9278 109.985 18.6412C110.636 18.3436 111.365 18.1948 112.171 18.1948ZM74.5455 34.7199H78.4954C79.4394 34.7199 80.2716 34.9018 80.9921 35.2655C81.7208 35.621 82.2838 36.1252 82.6813 36.7783C83.0871 37.4314 83.29 38.1919 83.29 39.0599C83.29 39.9279 83.0871 40.6884 82.6813 41.3415C82.2838 41.9946 81.7208 42.503 80.9921 42.8667C80.2716 43.2222 79.4394 43.3999 78.4954 43.3999H74.5455V34.7199ZM78.3961 41.7507C79.2655 41.7507 79.957 41.511 80.4704 41.0315C80.9921 40.5438 81.2529 39.8866 81.2529 39.0599C81.2529 38.2332 80.9921 37.5802 80.4704 37.1007C79.957 36.613 79.2655 36.3691 78.3961 36.3691H76.5577V41.7507H78.3961ZM84.6708 36.7287H86.6084V43.3999H84.6708V36.7287ZM85.6396 35.7987C85.2835 35.7987 84.9937 35.6954 84.7701 35.4887C84.5465 35.282 84.4348 35.0258 84.4348 34.7199C84.4348 34.414 84.5465 34.1578 84.7701 33.9511C84.9937 33.7444 85.2835 33.6411 85.6396 33.6411C85.9957 33.6411 86.2855 33.7403 86.5091 33.9387C86.7327 34.1371 86.8444 34.3851 86.8444 34.6827C86.8444 35.0051 86.7327 35.2738 86.5091 35.4887C86.2855 35.6954 85.9957 35.7987 85.6396 35.7987ZM95.3005 36.7287V42.2839C95.3005 43.5074 94.9817 44.4167 94.3441 45.0119C93.7065 45.6071 92.7749 45.9047 91.5493 45.9047C90.9034 45.9047 90.2907 45.8262 89.711 45.6691C89.1314 45.512 88.6511 45.2847 88.2702 44.9871L89.0403 43.5983C89.3218 43.8298 89.6779 44.0116 90.1085 44.1439C90.5391 44.2844 90.9697 44.3547 91.4003 44.3547C92.071 44.3547 92.5637 44.2018 92.8784 43.8959C93.2013 43.5983 93.3628 43.1436 93.3628 42.5319V42.2467C92.8577 42.8006 92.1538 43.0775 91.2512 43.0775C90.6385 43.0775 90.0754 42.9452 89.562 42.6807C89.0568 42.4079 88.6552 42.0276 88.3571 41.5399C88.059 41.0522 87.91 40.49 87.91 39.8535C87.91 39.217 88.059 38.6548 88.3571 38.1671C88.6552 37.6794 89.0568 37.3032 89.562 37.0387C90.0754 36.7659 90.6385 36.6295 91.2512 36.6295C92.2201 36.6295 92.9571 36.9478 93.4622 37.5843V36.7287H95.3005ZM91.6363 41.4903C92.1497 41.4903 92.5679 41.3415 92.8908 41.0439C93.222 40.738 93.3876 40.3412 93.3876 39.8535C93.3876 39.3658 93.222 38.9731 92.8908 38.6755C92.5679 38.3696 92.1497 38.2167 91.6363 38.2167C91.1229 38.2167 90.7006 38.3696 90.3693 38.6755C90.0381 38.9731 89.8725 39.3658 89.8725 39.8535C89.8725 40.3412 90.0381 40.738 90.3693 41.0439C90.7006 41.3415 91.1229 41.4903 91.6363 41.4903ZM97.1039 36.7287H99.0416V43.3999H97.1039V36.7287ZM98.0728 35.7987C97.7167 35.7987 97.4269 35.6954 97.2033 35.4887C96.9797 35.282 96.8679 35.0258 96.8679 34.7199C96.8679 34.414 96.9797 34.1578 97.2033 33.9511C97.4269 33.7444 97.7167 33.6411 98.0728 33.6411C98.4288 33.6411 98.7187 33.7403 98.9422 33.9387C99.1658 34.1371 99.2776 34.3851 99.2776 34.6827C99.2776 35.0051 99.1658 35.2738 98.9422 35.4887C98.7187 35.6954 98.4288 35.7987 98.0728 35.7987ZM104.865 43.0775C104.674 43.218 104.438 43.3255 104.157 43.3999C103.884 43.466 103.598 43.4991 103.299 43.4991C102.496 43.4991 101.879 43.2966 101.449 42.8915C101.018 42.4864 100.803 41.8912 100.803 41.1059V35.2531H102.74V36.8775H104.393V38.3655H102.74V41.0811C102.74 41.3622 102.811 41.5812 102.952 41.7383C103.092 41.8871 103.295 41.9615 103.561 41.9615C103.859 41.9615 104.124 41.8788 104.356 41.7135L104.865 43.0775ZM112.535 36.7287V43.3999H110.684V42.6311C110.204 43.2098 109.508 43.4991 108.597 43.4991C107.968 43.4991 107.397 43.3586 106.883 43.0775C106.378 42.7964 105.981 42.3955 105.691 41.8747C105.401 41.3539 105.256 40.7504 105.256 40.0643C105.256 39.3782 105.401 38.7747 105.691 38.2539C105.981 37.7331 106.378 37.3322 106.883 37.0511C107.397 36.77 107.968 36.6295 108.597 36.6295C109.45 36.6295 110.117 36.8982 110.597 37.4355V36.7287H112.535ZM108.933 41.9119C109.421 41.9119 109.827 41.7466 110.15 41.4159C110.473 41.077 110.634 40.6264 110.634 40.0643C110.634 39.5022 110.473 39.0558 110.15 38.7251C109.827 38.3862 109.421 38.2167 108.933 38.2167C108.436 38.2167 108.026 38.3862 107.703 38.7251C107.38 39.0558 107.219 39.5022 107.219 40.0643C107.219 40.6264 107.38 41.077 107.703 41.4159C108.026 41.7466 108.436 41.9119 108.933 41.9119ZM116.726 43.4991C115.972 43.4991 115.384 43.3007 114.962 42.9039C114.54 42.4988 114.329 41.9284 114.329 41.1927V34.1991H116.266V41.0811C116.266 41.3622 116.337 41.5812 116.477 41.7383C116.627 41.8871 116.834 41.9615 117.099 41.9615C117.198 41.9615 117.297 41.9491 117.397 41.9243C117.504 41.8995 117.587 41.8706 117.645 41.8375L117.732 43.3379C117.409 43.4454 117.074 43.4991 116.726 43.4991Z"/>
    <path d="M18.293 17.1349C18.3353 17.1866 18.3729 17.2288 18.4152 17.2805C18.6694 17.5858 18.9422 17.9193 19.2387 18.2763C19.3845 18.4548 19.5398 18.638 19.695 18.8258C20.4808 19.7699 21.37 20.8408 22.3062 21.9587C22.6779 22.4049 23.0591 22.8605 23.4402 23.3161C23.8213 23.7718 24.2071 24.232 24.5882 24.6876C24.6117 24.7158 24.6352 24.7441 24.6588 24.7722C24.8328 24.9788 25.0022 25.1855 25.1762 25.3875C25.2045 25.4204 25.2327 25.458 25.2657 25.4908C25.4021 25.6505 25.5339 25.8102 25.6656 25.9699C25.7503 26.0732 25.835 26.1719 25.9196 26.2752C25.9432 26.3035 25.9667 26.3316 25.9902 26.3598C26.042 26.4255 26.0985 26.4866 26.1502 26.5524C26.2161 26.6322 26.2819 26.712 26.3478 26.7919C26.376 26.8295 26.409 26.8624 26.4372 26.8999C26.5172 26.9938 26.5972 27.0925 26.6772 27.1864C26.7336 27.2522 26.7854 27.318 26.8418 27.3837C26.9077 27.4636 26.9736 27.5435 27.0395 27.6232C27.0959 27.6937 27.1571 27.7595 27.2135 27.8299C27.2417 27.8629 27.27 27.9004 27.3029 27.9332C27.3924 28.0413 27.4817 28.1493 27.5711 28.2526C27.5994 28.2855 27.6275 28.3185 27.6558 28.3513C27.7075 28.417 27.764 28.4781 27.8157 28.5392C27.8722 28.6049 27.924 28.6707 27.9804 28.7364C28.0086 28.7693 28.0321 28.7975 28.0604 28.8304C28.3898 29.2202 28.6956 29.5913 28.9873 29.9342C29.0014 29.9482 29.0155 29.967 29.0297 29.9812C29.119 30.0845 29.199 30.1831 29.2837 30.2818C29.3308 30.3381 29.3778 30.3945 29.4201 30.4462C29.4389 30.4697 29.4625 30.4979 29.4813 30.5213C29.6224 30.6857 29.7495 30.8407 29.8766 30.991C30.0318 31.1742 30.1777 31.348 30.3047 31.4982C30.3424 31.5453 30.3753 31.5829 30.4082 31.6251L30.4128 31.6298C30.5494 31.7942 30.6716 31.9398 30.7705 32.0572C30.7705 32.0572 30.7705 32.0572 30.7751 32.0619C30.8222 32.1182 30.8693 32.1699 30.9069 32.2169C30.9163 32.2263 30.9257 32.231 30.9351 32.2404C30.9869 32.278 31.0716 32.2826 31.1233 32.2404C31.1327 32.231 31.1422 32.2263 31.1516 32.2169C31.1845 32.1793 31.2222 32.1324 31.2645 32.0854C31.2927 32.0478 31.3257 32.0103 31.3586 31.9726C31.4339 31.8835 31.5185 31.7848 31.608 31.6768C31.6409 31.6392 31.6691 31.6063 31.6974 31.5687C31.7067 31.5593 31.7115 31.5499 31.7209 31.5405C31.7679 31.4842 31.8196 31.4231 31.8714 31.362C31.8714 31.3574 31.8761 31.3574 31.8761 31.3574C31.9185 31.3057 31.9655 31.2493 32.0126 31.193C32.0455 31.1507 32.0832 31.1085 32.1207 31.0614C32.2525 30.9018 32.3937 30.7374 32.5442 30.5542C32.563 30.5307 32.5819 30.5072 32.6054 30.4837C32.6665 30.4086 32.7371 30.3287 32.803 30.2488C32.8641 30.1785 32.9253 30.1032 32.9865 30.0281C33.1983 29.7745 33.424 29.5068 33.6593 29.2249C33.7064 29.1732 33.7487 29.1169 33.7957 29.0653C33.8099 29.0464 33.8286 29.0276 33.8428 29.0088C33.9086 28.9291 33.9792 28.8492 34.0451 28.7647C34.1157 28.6801 34.1863 28.5955 34.2615 28.5063C34.3038 28.4547 34.3462 28.4076 34.3885 28.356C34.4074 28.3325 34.4262 28.3137 34.445 28.2903C34.5438 28.1681 34.6473 28.046 34.7508 27.9238C34.779 27.891 34.8025 27.8629 34.8308 27.8299C34.8637 27.7924 34.8967 27.7548 34.9249 27.7172C35.179 27.4166 35.4378 27.1066 35.7012 26.7872C35.7624 26.712 35.8283 26.6369 35.8894 26.5618C35.8988 26.5524 35.9082 26.5382 35.9176 26.5288C35.9977 26.4302 36.0823 26.3316 36.167 26.233C36.2376 26.1531 36.3034 26.0686 36.374 25.9887C36.5058 25.8337 36.6375 25.6741 36.7693 25.5143C36.8069 25.4674 36.8446 25.4204 36.8869 25.3735C37.0562 25.1714 37.2257 24.9694 37.395 24.7675C37.4185 24.7441 37.4374 24.7158 37.4609 24.6924C37.842 24.2368 38.2231 23.7764 38.6089 23.3208C38.99 22.8652 39.3711 22.4097 39.7428 21.9635C40.6744 20.8455 41.5683 19.7747 42.354 18.8305C42.5093 18.6426 42.6646 18.4594 42.8104 18.281C43.1068 17.9241 43.3797 17.5905 43.6338 17.2852C43.6761 17.2336 43.7091 17.1913 43.7514 17.1443C40.392 14.0913 35.9271 12.2266 31.0292 12.2266C26.1172 12.2266 21.6523 14.0866 18.293 17.1349Z"/>
    <path d="M36.4487 40.0988C36.1805 39.8546 35.7571 39.925 35.5736 40.2397L32.7036 45.2185L31.9931 46.4444C31.8614 46.6698 31.6214 46.8108 31.358 46.8108H31.0192H30.6899H30.6804C30.417 46.8108 30.1723 46.6698 30.0406 46.4397L30.0359 46.435L26.4601 40.2303C26.2813 39.9156 25.8532 39.8498 25.585 40.0894L22.9173 42.4661L19.2098 45.7728C22.4421 48.3608 26.5449 49.9108 31.0145 49.9108C35.4842 49.9108 39.587 48.3608 42.8239 45.768L41.3984 44.4952L36.4487 40.0988Z"/>
    <path d="M16.2652 29.3187C15.3995 27.8673 14.3832 26.1624 13.5269 24.7204C13.4657 24.6171 13.4046 24.5137 13.3434 24.415C12.5576 26.4865 12.1249 28.7316 12.1249 31.0754C12.1249 33.6399 12.6377 36.0777 13.5692 38.3041L14.2891 37.4257L18.1565 32.7053C18.1613 32.7005 18.1942 32.663 18.2366 32.6066C18.2319 32.6019 18.2271 32.5972 18.2225 32.5878C18.1048 32.4047 17.2861 31.0331 16.2652 29.3187Z"/>
    <path d="M31.0526 0C13.9031 0 0 13.8701 0 30.9812C0 48.0923 13.9031 61.9624 31.0526 61.9624C48.2022 61.9624 62.1053 48.0923 62.1053 30.9812C62.1053 13.8701 48.2022 0 31.0526 0ZM55.3301 47.3173H55.316H44.6029C44.5888 47.3173 44.57 47.3126 44.5559 47.3079C44.5511 47.3126 44.5511 47.3126 44.5465 47.3173L44.5417 47.3126C40.8719 50.3562 36.1575 52.188 31.015 52.188C25.8725 52.188 21.1581 50.3562 17.493 47.3126H17.4883C17.4836 47.3079 17.4836 47.3079 17.4789 47.3032C17.4647 47.3079 17.4506 47.3126 17.4318 47.3126H6.71866H6.70454C6.49283 47.3126 6.37991 47.0683 6.51164 46.9087L11.9553 40.2624C10.605 37.4818 9.84745 34.363 9.84745 31.0657C9.84745 19.4032 19.3232 9.94818 31.015 9.94818C42.7068 9.94818 52.1825 19.4032 52.1825 31.0657C52.1825 34.3583 51.425 37.4771 50.0794 40.2577L52.1449 42.7754L55.523 46.8993L55.5325 46.9087C55.6548 47.073 55.5419 47.3173 55.3301 47.3173Z"/>
    <path d="M48.5122 24.7159C47.6512 26.1579 46.6396 27.8629 45.774 29.3142C44.7483 31.0333 43.9343 32.4001 43.8214 32.588C43.8167 32.5927 43.8119 32.5974 43.8073 32.6021L43.8778 32.6913C43.8825 32.696 43.8825 32.7007 43.8872 32.7054L48.4652 38.2948C49.392 36.0685 49.9049 33.6307 49.9049 31.0709C49.9049 28.7271 49.472 26.4866 48.6909 24.4199C48.6299 24.5186 48.5733 24.6172 48.5122 24.7159Z"/>
  </g>
</symbol>
<symbol id="rs-logo" viewBox="0 0 128 46">
  <g>
    <path d="M66.0841 14.5663L72.1738 14.1771C72.3127 15.1615 72.5674 15.8941 72.9842 16.4206C73.6557 17.2448 74.5819 17.6569 75.8091 17.6569C76.7121 17.6569 77.4299 17.4508 77.9162 17.0159C78.3793 16.6725 78.6572 16.123 78.6572 15.5507C78.6572 15.0012 78.4025 14.4747 77.9625 14.1313C77.4994 13.7192 76.4111 13.3071 74.6977 12.9408C71.8959 12.3227 69.8815 11.4986 68.7006 10.4455C67.5197 9.46106 66.8482 8.01878 66.8945 6.48492C66.8945 5.43183 67.2187 4.37874 67.8207 3.50879C68.5153 2.52438 69.4647 1.74601 70.5993 1.31103C71.8265 0.784486 73.5399 0.509766 75.6933 0.509766C78.333 0.509766 80.3475 0.990525 81.7367 1.97494C83.126 2.93646 83.9596 4.4932 84.2143 6.62228L78.1941 6.96568C78.032 6.04995 77.7078 5.38604 77.1752 4.95107C76.6427 4.5161 75.948 4.31006 75.045 4.31006C74.304 4.31006 73.7483 4.47031 73.3778 4.76792C73.0305 5.04264 72.799 5.45472 72.8221 5.91259C72.8221 6.25599 73.0074 6.5765 73.2852 6.78254C73.5862 7.05726 74.304 7.30908 75.4386 7.53802C78.2404 8.13324 80.2317 8.72847 81.4589 9.34659C82.6861 9.96471 83.566 10.7202 84.0985 11.613C84.6543 12.5288 84.9321 13.5819 84.909 14.6578C84.909 15.9399 84.5385 17.2219 83.7975 18.2979C83.0334 19.4197 81.9683 20.2896 80.7179 20.8161C79.3981 21.3885 77.731 21.6861 75.7396 21.6861C72.2201 21.6861 69.7888 21.0222 68.4227 19.6715C67.0566 18.3208 66.2462 16.6267 66.0841 14.5663ZM1.45888 21.3427V0.876059H12.1333C14.1014 0.876059 15.6296 1.03631 16.6716 1.37971C17.6904 1.70022 18.5935 2.36413 19.1955 3.25696C19.867 4.24138 20.1912 5.38604 20.168 6.5765C20.2375 8.59111 19.1955 10.5142 17.4126 11.5215C16.7179 11.9106 15.9538 12.1854 15.1665 12.3227C15.7454 12.483 16.3243 12.7577 16.8337 13.0782C17.2273 13.3987 17.5515 13.765 17.8525 14.1542C18.1998 14.5434 18.5008 14.9783 18.7556 15.4362L21.8583 21.3656H14.5877L11.1608 15.0699C10.7208 14.2687 10.3503 13.7421 10.003 13.4903C9.53992 13.1698 8.98421 13.0095 8.42849 13.0095H7.87277V21.3198H1.45888V21.3427ZM7.87277 9.16344H10.5819C11.1608 9.11766 11.7165 9.02608 12.2722 8.88872C12.689 8.82004 13.0595 8.59111 13.3142 8.24771C13.9393 7.42355 13.8467 6.25599 13.0826 5.5463C12.6658 5.2029 11.8554 5.01975 10.6977 5.01975H7.87277V9.16344ZM0.00012207 38.879L6.08985 38.4898C6.22878 39.4742 6.48348 40.2068 6.90027 40.7333C7.5486 41.5575 8.49795 41.9925 9.72516 41.9925C10.6282 41.9925 11.346 41.7864 11.8323 41.3515C12.2953 40.9852 12.5732 40.4586 12.5732 39.8863C12.5732 39.3368 12.3185 38.8103 11.8786 38.4669C11.4155 38.0548 10.3272 37.6427 8.59057 37.2764C5.78883 36.6583 3.77436 35.8342 2.59347 34.7811C1.41257 33.7967 0.741077 32.3544 0.787387 30.8205C0.787387 29.7674 1.11155 28.7143 1.71358 27.8444C2.40823 26.86 3.35758 26.0816 4.49216 25.6466C5.71937 25.1201 7.43283 24.8454 9.58623 24.8454C12.2259 24.8454 14.2404 25.3261 15.6296 26.3105C17.0189 27.295 17.8294 28.8288 18.0841 30.9579L12.0638 31.3013C11.9017 30.3856 11.5775 29.7217 11.045 29.2867C10.5356 28.8517 9.81778 28.6457 8.91474 28.6686C8.17379 28.6686 7.61807 28.8288 7.24759 29.1493C6.87711 29.424 6.66872 29.8361 6.69187 30.294C6.69187 30.6374 6.87711 30.9579 7.15497 31.1639C7.45598 31.4387 8.17379 31.6905 9.30837 31.9194C12.1101 32.5146 14.1014 33.1099 15.3286 33.728C16.5558 34.3461 17.4357 35.1016 17.9683 35.9944C18.524 36.9102 18.8019 37.9632 18.8019 39.0163C18.8019 40.2984 18.4082 41.5575 17.6904 42.6335C16.9263 43.7553 15.8612 44.6252 14.6108 45.1518C13.291 45.7241 11.6239 46.0217 9.63254 46.0217C6.113 46.0217 3.68174 45.3578 2.31561 44.0071C0.949471 42.6335 0.185361 40.9394 0.00012207 38.879Z"/>
    <path d="M30.796 37.277L36.3994 38.9482C36.0984 40.3447 35.4732 41.6725 34.6165 42.8401C33.8292 43.8703 32.7873 44.6715 31.6064 45.1981C30.4023 45.7246 28.8741 45.9994 27.0217 45.9994C24.7757 45.9994 22.9233 45.6788 21.5109 45.0378C20.0753 44.3968 18.8481 43.2521 17.8061 41.6267C16.7641 40.0013 16.2547 37.918 16.2547 35.3768C16.2547 31.9886 17.1578 29.3788 18.987 27.5702C20.8162 25.7617 23.3864 24.8459 26.7207 24.8459C29.3372 24.8459 31.3748 25.3725 32.8799 26.4027C34.3618 27.4558 35.4732 29.0583 36.2142 31.2103L30.5644 32.4465C30.4255 31.9657 30.2171 31.485 29.9392 31.0729C29.5919 30.5921 29.152 30.2258 28.6194 29.9511C28.0868 29.6764 27.4848 29.5619 26.8828 29.5619C25.424 29.5619 24.3126 30.1343 23.5485 31.3018C22.9696 32.1489 22.6686 33.4996 22.6686 35.3311C22.6686 37.5975 23.0159 39.1542 23.7106 40.0013C24.4052 40.8484 25.3777 41.2604 26.6512 41.2604C27.8784 41.2604 28.8046 40.917 29.4298 40.2531C30.055 39.5434 30.5181 38.559 30.796 37.277ZM43.8785 25.1893H50.2692V32.3549H57.262V25.1893H63.699V45.656H57.262V37.3686H50.2692V45.656H43.8785V25.1893Z"/>
    <path d="M62.8191 35.4224C62.8191 32.08 63.7685 29.4701 65.644 27.6158C67.5196 25.7614 70.1592 24.8228 73.5167 24.8228C76.9667 24.8228 79.6064 25.7385 81.4819 27.57C83.3575 29.4014 84.2837 31.9655 84.2837 35.2621C84.2837 37.6659 83.8669 39.6119 83.0565 41.1457C82.2692 42.6567 81.042 43.8929 79.5369 44.7171C77.9855 45.5641 76.0637 45.9991 73.7714 45.9991C71.4327 45.9991 69.5109 45.6328 67.9827 44.9002C66.4081 44.1218 65.1115 42.9085 64.2547 41.4204C63.3054 39.8179 62.8191 37.8262 62.8191 35.4224ZM69.2099 35.4453C69.2099 37.5057 69.6035 38.9937 70.3676 39.9095C71.1317 40.8023 72.1968 41.2602 73.5398 41.2602C74.906 41.2602 75.9711 40.8252 76.7352 39.9324C77.4993 39.0395 77.8698 37.4599 77.8698 35.1706C77.8698 33.2475 77.4761 31.8281 76.6889 30.9582C75.9016 30.0653 74.8365 29.6304 73.4935 29.6304C72.3126 29.5846 71.178 30.0882 70.3908 30.9811C69.6035 31.8739 69.2099 33.362 69.2099 35.4453ZM90.8365 35.4224C90.8365 32.08 91.7858 29.4701 93.6614 27.6158C95.5369 25.7614 98.1766 24.8228 101.534 24.8228C104.984 24.8228 107.647 25.7385 109.499 27.57C111.352 29.4014 112.301 31.9655 112.301 35.2621C112.301 37.6659 111.884 39.6119 111.074 41.1457C110.287 42.6567 109.059 43.8929 107.554 44.7171C106.003 45.5641 104.081 45.9991 101.789 45.9991C99.4501 45.9991 97.5283 45.6328 96 44.9002C94.4255 44.1218 93.1288 42.9085 92.2721 41.4204C91.3228 39.8179 90.8365 37.8262 90.8365 35.4224ZM97.2272 35.4453C97.2272 37.5057 97.6209 38.9937 98.385 39.9095C99.1491 40.8023 100.214 41.2602 101.557 41.2602C102.923 41.2602 103.988 40.8252 104.753 39.9324C105.517 39.0395 105.887 37.4599 105.887 35.1706C105.887 33.2475 105.494 31.8281 104.706 30.9582C103.919 30.0653 102.854 29.6304 101.511 29.6304C100.33 29.5846 99.1722 30.0882 98.4081 30.9811C97.6209 31.8739 97.2272 33.362 97.2272 35.4453Z"/>
    <path fill-rule="evenodd" clip-rule="evenodd" d="M108.52 6.19557C104.796 1.29879 96.7515 0.849092 90.4904 5.52486C84.2301 10.2 82.4544 17.979 86.174 22.8704C89.8977 27.7672 97.9422 28.2169 104.203 23.5411C110.464 18.866 112.239 11.087 108.52 6.19557ZM89.7877 4.58395C96.384 -0.342129 105.217 -0.0882382 109.454 5.48475C113.696 11.0631 111.503 19.5554 104.906 24.4821C98.3097 29.4081 89.4772 29.1542 85.2393 23.5813C80.9974 18.003 83.1906 9.51064 89.7877 4.58395Z"/>
    <path d="M90.86 13.0324L93.1754 11.4298L96.0235 15.4362C96.5098 16.0772 96.8802 16.764 97.1581 17.5194C97.3202 18.0918 97.2739 18.7099 97.0423 19.2593C96.7413 19.9461 96.255 20.5185 95.6067 20.9305C94.8426 21.4571 94.1943 21.7547 93.6385 21.8463C93.106 21.9379 92.5503 21.8463 92.0409 21.6173C91.4851 21.3426 90.9989 20.9534 90.6284 20.4498L92.6197 18.6183C92.7818 18.8701 92.9902 19.0991 93.2218 19.2822C93.3838 19.3967 93.5691 19.4654 93.7775 19.4654C93.9396 19.4654 94.1016 19.3967 94.2174 19.3051C94.449 19.1678 94.6111 18.893 94.5879 18.6183C94.5184 18.2291 94.3564 17.84 94.1016 17.5423L90.86 13.0324ZM97.8064 15.5735L99.9135 13.9252C100.145 14.1999 100.446 14.406 100.77 14.5204C101.233 14.6578 101.72 14.5662 102.113 14.2686C102.391 14.0854 102.623 13.8336 102.715 13.5131C102.854 13.101 102.623 12.6432 102.206 12.5058C102.136 12.4829 102.067 12.46 101.997 12.46C101.72 12.4371 101.233 12.5516 100.516 12.8492C99.3347 13.33 98.4085 13.5131 97.7138 13.4444C97.0423 13.3758 96.4171 13.0324 96.0467 12.46C95.7688 12.0708 95.6299 11.613 95.6067 11.1551C95.6067 10.6286 95.7456 10.102 96.0467 9.66703C96.4866 9.04891 97.0192 8.52237 97.6675 8.11029C98.64 7.44638 99.4967 7.12587 100.238 7.12587C100.979 7.12587 101.673 7.46927 102.322 8.17897L100.238 9.80439C99.8209 9.27785 99.0336 9.16338 98.5011 9.57546L98.4316 9.64414C98.2001 9.7815 98.038 9.98754 97.9454 10.2394C97.8759 10.4225 97.9222 10.6286 98.038 10.7888C98.1306 10.9033 98.2695 10.9948 98.4316 10.9948C98.6168 11.0177 98.941 10.9262 99.4041 10.7201C100.562 10.2394 101.442 9.96465 102.044 9.87307C102.553 9.7815 103.086 9.82729 103.572 10.0333C104.012 10.2165 104.382 10.537 104.637 10.9262C104.961 11.384 105.147 11.9335 105.17 12.5058C105.193 13.101 105.031 13.6734 104.707 14.177C104.29 14.7951 103.757 15.3217 103.132 15.7338C101.859 16.6037 100.817 16.97 99.983 16.8326C99.0799 16.6953 98.339 16.2374 97.8064 15.5735Z"/>
    <path d="M118.02 25.1893V40.6194H128V45.6559H111.607V25.1893H118.02Z"/>
  </g>
</symbol>

<!-- PROFILE ICON -->
<symbol id="profile" viewBox="0 0 52 52">
  <g>
    <circle cx="26" cy="26" r="26"/>
    <circle cx="26" cy="17" r="7" stroke="#FCFCFC" stroke-width="2"/>
    <path fill-rule="evenodd" clip-rule="evenodd" d="M37.9565 42C37.4186 42 37 41.5379 37 41C37 34.9249 32.0751 30 26 30C19.9249 30 15 34.9249 15 41C15 41.5379 14.5814 42 14.0435 42H13.9583C13.439 42 13.0034 41.5998 13.0002 41.0806C13.0001 41.0537 13 41.0269 13 41C13 33.8203 18.8203 28 26 28C33.1797 28 39 33.8203 39 41C39 41.0269 38.9999 41.0537 38.9998 41.0806C38.9966 41.5998 38.561 42 38.0417 42H37.9565Z" fill="#FCFCFC"/>
  </g>
</symbol>

<!-- SOCIAL ICONS -->
<symbol id="inst" viewBox="0 0 24 24">
    <path d="M15.52 12C15.52 12.6962 15.3136 13.3767 14.9268 13.9556C14.54 14.5345 13.9902 14.9856 13.347 15.2521C12.7038 15.5185 11.9961 15.5882 11.3133 15.4524C10.6305 15.3165 10.0033 14.9813 9.51098 14.489C9.0187 13.9967 8.68346 13.3695 8.54764 12.6867C8.41182 12.0039 8.48152 11.2962 8.74794 10.653C9.01436 10.0098 9.46553 9.46001 10.0444 9.07323C10.6233 8.68644 11.3038 8.48 12 8.48C12.9332 8.48107 13.8279 8.85227 14.4878 9.51216C15.1477 10.1721 15.5189 11.0668 15.52 12ZM23 7.16V16.84C22.9981 18.4732 22.3486 20.0389 21.1937 21.1937C20.0389 22.3486 18.4732 22.9981 16.84 23H7.16C5.52683 22.9981 3.96109 22.3486 2.80627 21.1937C1.65144 20.0389 1.00185 18.4732 1 16.84V7.16C1.00185 5.52683 1.65144 3.96109 2.80627 2.80627C3.96109 1.65144 5.52683 1.00185 7.16 1H16.84C18.4732 1.00185 20.0389 1.65144 21.1937 2.80627C22.3486 3.96109 22.9981 5.52683 23 7.16ZM17.28 12C17.28 10.9557 16.9703 9.93488 16.3902 9.06659C15.81 8.1983 14.9854 7.52155 14.0206 7.12192C13.0558 6.72229 11.9941 6.61772 10.9699 6.82145C9.9457 7.02518 9.0049 7.52806 8.26648 8.26648C7.52806 9.0049 7.02518 9.9457 6.82145 10.9699C6.61772 11.9941 6.72229 13.0558 7.12192 14.0206C7.52155 14.9854 8.1983 15.81 9.06659 16.3902C9.93488 16.9703 10.9557 17.28 12 17.28C13.3999 17.2784 14.7419 16.7216 15.7318 15.7318C16.7216 14.7419 17.2784 13.3999 17.28 12ZM19.04 6.28C19.04 6.01893 18.9626 5.76372 18.8175 5.54665C18.6725 5.32957 18.4663 5.16039 18.2251 5.06048C17.9839 4.96057 17.7185 4.93443 17.4625 4.98536C17.2064 5.0363 16.9712 5.16201 16.7866 5.34662C16.602 5.53122 16.4763 5.76643 16.4254 6.02248C16.3744 6.27854 16.4006 6.54394 16.5005 6.78514C16.6004 7.02634 16.7696 7.2325 16.9866 7.37754C17.2037 7.52258 17.4589 7.6 17.72 7.6C18.0701 7.6 18.4058 7.46093 18.6534 7.21338C18.9009 6.96583 19.04 6.63009 19.04 6.28Z"/>
</symbol> 
<symbol id="facebook" viewBox="0 0 24 24">
    <path d="M14.25 17.9531C14.25 19.8375 14.2453 21.7172 14.2547 23.6016C14.2547 23.8078 14.1984 23.8641 13.9922 23.8594C12.3891 23.85 10.7906 23.85 9.1875 23.8594C8.96719 23.8594 8.89687 23.8078 8.89687 23.5781C8.90625 19.8422 8.90156 16.1109 8.90156 12.375C8.90156 12 8.94375 12.0469 8.55937 12.0422C7.87968 12.0422 7.2 12.0375 6.52031 12.0469C6.35625 12.0469 6.30937 11.9953 6.30937 11.8313C6.31406 10.6453 6.31406 9.4547 6.30937 8.26876C6.30937 8.1047 6.35625 8.05313 6.52031 8.05782C7.23281 8.0672 7.94062 8.05313 8.65312 8.0672C8.84531 8.07189 8.90625 8.02032 8.90625 7.81876C8.89687 6.82032 8.90625 5.8172 8.90156 4.81876C8.89687 3.98907 9.02343 3.18751 9.44062 2.45626C9.89062 1.65939 10.5656 1.11095 11.4 0.754699C12.1031 0.454699 12.8437 0.314074 13.6031 0.271886C15.1078 0.187511 16.6172 0.257824 18.1219 0.229699C18.2906 0.225011 18.3328 0.285949 18.3328 0.445324C18.3281 1.67814 18.3281 2.91564 18.3328 4.14845C18.3328 4.33595 18.2625 4.36407 18.0984 4.36407C17.2313 4.35939 16.3641 4.35939 15.4969 4.35939C14.775 4.35939 14.2547 4.8797 14.2547 5.5922C14.2547 6.32814 14.2641 7.05938 14.25 7.79532C14.2453 8.00626 14.3156 8.05782 14.5172 8.05782C15.7031 8.04845 16.8938 8.05782 18.0797 8.04845C18.2766 8.04845 18.3422 8.1047 18.3188 8.30157C18.2484 8.90626 18.1875 9.51095 18.1219 10.1156C18.0609 10.6969 17.9578 11.2734 17.8641 11.85C17.8359 12.0141 17.7844 12.0516 17.6344 12.0516C16.6172 12.0469 15.6047 12.0469 14.5875 12.0516C14.1891 12.0516 14.2453 12 14.2453 12.4031C14.25 14.25 14.25 16.1016 14.25 17.9531Z"/>
</symbol>
<symbol id="twitter" viewBox="0 0 24 24">
    <path d="M0.0332476 20.7535C2.67405 20.9954 5.05363 20.3181 7.21947 18.6637C4.95389 18.4605 3.43875 17.3091 2.59331 15.1516C3.33426 15.2435 4.02771 15.2677 4.7639 15.0645C2.32258 14.2905 1.02118 12.6651 0.845438 10.0431C1.57688 10.3914 2.26558 10.6429 3.07778 10.6526C1.62913 9.5448 0.888185 8.10803 0.916683 6.29877C0.930932 5.4667 1.14942 4.68301 1.58163 3.94286C4.26519 7.14051 7.63269 8.91108 11.7791 9.20617C11.7554 9.02234 11.7411 8.87721 11.7221 8.72725C11.3802 6.04722 13.09 3.60907 15.7024 3.10112C17.341 2.78184 18.7896 3.22206 20.015 4.37341C20.205 4.54756 20.3665 4.58626 20.604 4.52337C21.5587 4.27666 22.4659 3.91867 23.3445 3.43491C23.0073 4.56691 22.3139 5.41833 21.3734 6.13429C21.5872 6.09559 21.8057 6.06657 22.0194 6.02303C22.2426 5.97465 22.4659 5.92144 22.6891 5.85855C22.9028 5.8005 23.1118 5.73277 23.3208 5.66021C23.5345 5.58764 23.7483 5.50541 24 5.46187C23.8765 5.63602 23.7578 5.81985 23.6248 5.98917C23.0738 6.70029 22.4374 7.32434 21.7392 7.88067C21.6679 7.93872 21.6062 8.0645 21.6109 8.15157C21.6489 9.86892 21.4114 11.5427 20.8652 13.1682C19.7918 16.3707 17.9204 18.9636 15.1134 20.8164C13.7265 21.7307 12.2114 22.3306 10.5917 22.6789C8.98634 23.0223 7.37146 23.0852 5.75183 22.8917C4.12745 22.6982 2.58381 22.2096 1.13042 21.4453C0.745696 21.247 0.375223 21.0244 0 20.8116C0.014249 20.7922 0.0237483 20.7729 0.0332476 20.7535Z"/>
</symbol>

<!-- MARKERS ICONS -->
<symbol id="marker" viewBox="0 0 96 124">
  <path d="M95 48.2222C95 54.6241 92.0999 62.5078 87.6196 70.8237C83.1551 79.1106 77.1902 87.7032 71.2071 95.4889C65.2268 103.271 59.244 110.227 54.7551 115.238C52.5112 117.743 50.6417 119.761 49.334 121.151C48.786 121.734 48.3368 122.207 48 122.559C47.6632 122.207 47.214 121.734 46.666 121.151C45.3583 119.761 43.4888 117.743 41.2449 115.238C36.756 110.227 30.7732 103.271 24.7929 95.4889C18.8098 87.7032 12.845 79.1106 8.38036 70.8237C3.90011 62.5078 1 54.6241 1 48.2222C1 22.1378 22.047 1 48 1C73.953 1 95 22.1378 95 48.2222Z" fill="#FCFCFC"/>
</symbol>
<symbol id="eagle" viewBox="0 0 38 49" stroke="none">
  <g>
    <path d="M37.702 42.5642L34.9303 17.2029C34.8868 8.1535 27.7659 0.805664 19.0195 0.805664C10.273 0.805664 3.15214 8.15398 3.10904 17.2029L0.336893 42.5642C0.290552 42.9885 0.428187 43.4124 0.713187 43.721C0.998187 44.0301 1.40182 44.1948 1.81148 44.1631C1.84021 44.1612 4.67492 43.9663 7.22787 43.9663C9.02731 43.9663 9.9217 44.0623 10.3555 44.1434C12.527 44.5476 16.7659 47.3969 18.2159 48.461C18.4569 48.6372 18.7382 48.726 19.0195 48.726C19.3012 48.726 19.5839 48.6367 19.8249 48.4591C21.2295 47.4247 25.3414 44.646 27.4698 44.2197C27.9597 44.1218 28.9958 44.0052 31.153 44.0052C33.6346 44.0052 36.2121 44.1621 36.2376 44.1641C36.645 44.1837 37.0463 44.0253 37.329 43.7172C37.6117 43.409 37.7484 42.9866 37.702 42.5642ZM31.153 41.1252C29.2174 41.1252 27.8406 41.2125 26.942 41.3925C24.4488 41.8917 20.6915 44.3676 19.0176 45.5373C17.3039 44.3441 13.4066 41.7857 10.8467 41.3085C10.0426 41.1588 8.85863 41.0863 7.22694 41.0863C5.82002 41.0863 4.36072 41.141 3.28375 41.1943L5.8798 17.4482C5.88582 17.3945 5.8886 17.3402 5.8886 17.2865C5.8886 9.78694 11.7786 3.68614 19.019 3.68614C26.2589 3.68614 32.1494 9.78694 32.1494 17.2865C32.1494 17.3407 32.1526 17.3949 32.1582 17.4482L34.7552 41.2073C33.7709 41.166 32.4608 41.1252 31.153 41.1252Z" fill="#0F0049"/>
    <path d="M10.678 19.0648C12.0536 19.0648 13.1688 17.9097 13.1688 16.4848C13.1688 15.0599 12.0536 13.9048 10.678 13.9048C9.30233 13.9048 8.18713 15.0599 8.18713 16.4848C8.18713 17.9097 9.30233 19.0648 10.678 19.0648Z" fill="#0F0049"/>
    <path d="M27.3609 19.0648C28.7366 19.0648 29.8518 17.9097 29.8518 16.4848C29.8518 15.0599 28.7366 13.9048 27.3609 13.9048C25.9852 13.9048 24.8701 15.0599 24.8701 16.4848C24.8701 17.9097 25.9852 19.0648 27.3609 19.0648Z" fill="#0F0049"/>
    <path d="M19.0195 36.8442L25.2236 20.2031H12.8143L19.0195 36.8442ZM19.0195 28.8503L16.8692 23.0831H21.1697L19.0195 28.8503Z" fill="#0F0049"/>
  </g>
</symbol>  
<symbol id="alligator" viewBox="0 0 40 47" stroke="none">
    <path d="M39.9229 16.3106C39.9229 12.5174 37.488 8.42509 33.2418 5.08273C29.2111 1.90978 24.261 0.015625 19.9998 0.015625C11.4848 0.015625 0.0767212 8.07213 0.0767212 16.311C0.0767212 18.9086 3.76011 23.8997 4.5428 24.9303C6.34189 27.5138 8.7634 32.0545 8.27529 33.6446C6.89777 38.1275 6.89371 41.5491 8.26271 43.8136C9.38055 45.6632 10.9934 46.019 11.1736 46.0534C11.2494 46.0679 11.3257 46.0752 11.4028 46.0752H28.5964C28.667 46.0752 28.7376 46.0692 28.807 46.057C28.9876 46.0255 30.6045 45.6952 31.7308 43.8649C33.1169 41.6133 33.1144 38.1748 31.7243 33.645C31.2318 32.0399 33.6062 27.5906 35.4568 24.9295C36.2403 23.8977 39.9229 18.9078 39.9229 16.3106ZM33.4723 23.5253C32.6141 24.7548 28.385 31.0571 29.3966 34.3537C30.839 39.0533 30.3574 41.3906 29.6992 42.5238C29.2403 43.3138 28.6508 43.5766 28.4382 43.649H11.5651C11.3728 43.5787 10.8043 43.3167 10.3479 42.5622C9.66254 41.4278 9.15008 39.0832 10.6027 34.3541C11.6154 31.0575 7.38548 24.7548 6.52732 23.5253C6.51799 23.5116 6.50784 23.4982 6.49811 23.4849C4.84224 21.3081 2.51081 17.6432 2.51081 16.3106C2.51081 9.61414 12.775 2.44103 19.9994 2.44103C28.0085 2.44103 37.488 9.95901 37.488 16.3106C37.488 17.6411 35.1566 21.3065 33.5007 23.4849C33.4914 23.4978 33.4812 23.5116 33.4723 23.5253Z" fill="#080029"/>
    <path d="M18.3946 37.8101H15.9601V41.091H18.3946V37.8101Z" fill="#080029"/>
    <path d="M24.0394 37.8101H21.6049V41.091H24.0394V37.8101Z" fill="#080029"/>
    <path d="M22.8221 25.4653H17.1774V27.8911H22.8221V25.4653Z" fill="#080029"/>
    <path d="M22.8221 30.3867H17.1774V32.8125H22.8221V30.3867Z" fill="#080029"/>
    <path d="M7.50585 17.108L12.3247 21.9097L14.0461 20.1944L9.22728 15.3927L7.50585 17.108Z" fill="#080029"/>
    <path d="M25.9556 20.1936L27.6768 21.9092L32.4964 17.1082L30.7752 15.3927L25.9556 20.1936Z" fill="#080029"/>
    <path d="M25.5281 11.9272H14.4714V14.3531H25.5281V11.9272Z" fill="#080029"/>
    <path d="M25.5281 7.07568H14.4714V9.50149H25.5281V7.07568Z" fill="#080029"/>
</symbol>
<symbol id="gorilla" viewBox="0 0 40 46" stroke="none">
    <path d="M39.8515 27.843C39.6874 24.9424 38.9274 19.1901 37.9826 16.3782C35.9452 10.3099 29.8685 0.0400391 20.0152 0.0400391C10.1633 0.0400391 4.08557 10.3099 2.04779 16.3782C1.10224 19.1927 0.342607 24.9438 0.179274 27.8433C-0.0688741 32.2493 1.5615 36.5485 4.77039 39.9491C8.3752 43.7693 13.4363 45.9603 18.6563 45.9603H21.3748C26.5941 45.9603 31.6552 43.7693 35.26 39.9491C38.4689 36.5481 40.0997 32.2493 39.8515 27.843ZM33.6448 38.42C30.5045 41.7476 25.9178 43.7341 21.3745 43.7341H18.6559C14.1126 43.7341 9.5252 41.7476 6.3852 38.4196C3.60039 35.4686 2.18446 31.757 2.39779 27.9683C2.55816 25.1316 3.30372 19.6193 4.15409 17.0871C5.87594 11.9607 11.4067 2.26547 20.0156 2.26547C28.6259 2.26547 34.1556 11.9607 35.8767 17.0875C36.7267 19.6171 37.473 25.1301 37.6334 27.9683C37.8463 31.757 36.43 35.4689 33.6448 38.42Z" fill="#080029"/>
    <path d="M25.9615 13.6831C23.7715 13.6831 21.6959 14.421 20.0152 15.7802C18.3345 14.421 16.2589 13.6831 14.0685 13.6831C8.83408 13.6831 4.57556 17.9485 4.57556 23.1914C4.57556 26.677 6.43889 29.8076 9.41445 31.4751C9.1063 32.1744 8.94704 32.907 8.94704 33.6415C8.94704 37.8223 13.8085 41.0969 20.0152 41.0969C26.2219 41.0969 31.083 37.8223 31.083 33.6415C31.083 32.907 30.9233 32.174 30.6156 31.4751C33.5911 29.8076 35.4541 26.6766 35.4541 23.1914C35.4545 17.9485 31.1959 13.6831 25.9615 13.6831ZM28.6474 29.9538L27.3196 30.4831L28.1593 31.6417C28.6248 32.2838 28.8611 32.9567 28.8611 33.6415C28.8611 36.4765 24.81 38.8711 20.0156 38.8711C15.2207 38.8711 11.1696 36.4765 11.1696 33.6415C11.1696 32.9571 11.4059 32.2845 11.8719 31.6417L12.7115 30.4831L11.3841 29.9538C8.59852 28.8431 6.79889 26.1884 6.79889 23.1914C6.79889 19.176 10.0604 15.9089 14.0696 15.9089C16.02 15.9089 17.8519 16.6735 19.2278 18.0613L20.0163 18.857L20.8048 18.0613C22.1807 16.6735 24.0122 15.9089 25.9626 15.9089C29.9715 15.9089 33.2333 19.176 33.2333 23.1914C33.2322 26.1884 31.4326 28.8431 28.6474 29.9538Z" fill="#080029"/>
    <path d="M13.3482 24.2892C14.4476 24.2892 15.3389 23.3965 15.3389 22.2952C15.3389 21.194 14.4476 20.3013 13.3482 20.3013C12.2487 20.3013 11.3574 21.194 11.3574 22.2952C11.3574 23.3965 12.2487 24.2892 13.3482 24.2892Z" fill="#080029"/>
    <path d="M26.6823 24.2892C27.7817 24.2892 28.673 23.3965 28.673 22.2952C28.673 21.194 27.7817 20.3013 26.6823 20.3013C25.5828 20.3013 24.6915 21.194 24.6915 22.2952C24.6915 23.3965 25.5828 24.2892 26.6823 24.2892Z" fill="#080029"/>
    <path d="M19.186 28.2876H16.9637V31.2884H19.186V28.2876Z" fill="#080029"/>
    <path d="M23.0667 28.2876H20.8445V31.2884H23.0667V28.2876Z" fill="#080029"/>
</symbol>
<symbol id="panda" viewBox="0 0 44 35" stroke="none">
    <path d="M42.0253 2.37611C40.9181 1.23898 39.4518 0.612802 37.8963 0.612802C36.311 0.612802 34.8251 1.25983 33.7117 2.43449L32.4533 3.76228C29.2273 1.55435 25.6325 0.392578 22.0002 0.392578C18.3675 0.392578 14.7727 1.55435 11.547 3.76228L10.2883 2.43449C9.17489 1.25983 7.68861 0.613182 6.10366 0.613182C4.54856 0.613182 3.0823 1.23936 1.97505 2.37687C-0.33156 4.74665 -0.356319 8.62882 1.91971 11.0308L3.77665 12.9901C2.61588 15.5122 2.00564 18.1197 2.00564 20.5774C2.00564 29.2863 9.66716 34.6964 22.0005 34.6964C34.3336 34.6964 41.9951 29.2863 41.9951 20.5774C41.9951 18.1201 41.3845 15.513 40.2233 12.9901L42.081 11.0308C44.3567 8.62882 44.3319 4.74665 42.0253 2.37611ZM40.5248 9.43315L38.117 11.9735C37.7824 12.3268 37.7063 12.8646 37.9287 13.3032C39.1594 15.7291 39.8097 18.2444 39.8097 20.577C39.8097 29.3102 30.6095 32.4218 21.9998 32.4218C13.3898 32.4218 4.18955 29.3102 4.18955 20.577C4.18955 18.244 4.83984 15.7283 6.07016 13.3032C6.29263 12.8646 6.21617 12.3264 5.88192 11.9735L3.47444 9.43315C2.04423 7.9238 2.05989 5.48427 3.50903 3.99539C4.20484 3.28089 5.12603 2.88706 6.10329 2.88706C7.09949 2.88706 8.03342 3.29378 8.73323 4.03178L10.635 6.03805C11.0133 6.43719 11.6144 6.48912 12.0513 6.16162C15.096 3.87523 18.5361 2.66684 22.0002 2.66684C25.4636 2.66684 28.9036 3.87523 31.9487 6.16162C32.3852 6.4895 32.9871 6.43719 33.3654 6.03805L35.2671 4.03178C35.9666 3.29378 36.9005 2.88706 37.8967 2.88706C38.8743 2.88706 39.7955 3.28089 40.491 3.99501C41.9401 5.48465 41.9554 7.9238 40.5248 9.43315Z" fill="#080029"/>
    <path d="M8.13473 15.287C6.03711 17.4707 5.63368 20.5906 7.23356 22.2557C8.83308 23.9216 11.83 23.5013 13.9277 21.3176C16.0249 19.1343 16.4283 16.0144 14.8288 14.3489C13.2289 12.6837 10.232 13.1037 8.13473 15.287ZM10.7126 20.4344C9.63157 20.4344 8.75553 19.5224 8.75553 18.3971C8.75553 17.2717 9.63157 16.3597 10.7126 16.3597C11.7936 16.3597 12.6697 17.2717 12.6697 18.3971C12.6697 19.5224 11.7936 20.4344 10.7126 20.4344Z" fill="#080029"/>
    <path d="M29.1712 14.3489C27.571 16.0144 27.9751 19.1343 30.0724 21.3176C32.1696 23.5013 35.167 23.9213 36.7665 22.2557C38.3667 20.5906 37.9626 17.4707 35.8653 15.287C33.7681 13.1037 30.7704 12.6837 29.1712 14.3489ZM33.2875 20.4344C32.2064 20.4344 31.3304 19.5225 31.3304 18.3971C31.3304 17.2717 32.2064 16.3597 33.2875 16.3597C34.3685 16.3597 35.2445 17.2717 35.2445 18.3971C35.2445 19.5225 34.3681 20.4344 33.2875 20.4344Z" fill="#080029"/>
    <path d="M24.0469 22.9568C24.5417 22.8484 24.9131 22.3924 24.9131 21.8447C24.9131 21.2166 24.4241 20.7075 23.8208 20.7075H20.1797C19.5764 20.7075 19.0874 21.2166 19.0874 21.8447C19.0874 22.392 19.4588 22.848 19.9532 22.9568L18.1811 24.8016C17.7544 25.2454 17.7544 25.9656 18.1811 26.4095C18.3945 26.6316 18.6741 26.7427 18.9534 26.7427C19.2327 26.7427 19.5123 26.6316 19.7257 26.4095L21.9999 24.042L24.2741 26.4095C24.4875 26.6316 24.7671 26.7427 25.0464 26.7427C25.3256 26.7427 25.6053 26.6316 25.8186 26.4095C26.2454 25.9656 26.2454 25.2454 25.8186 24.8016L24.0469 22.9568Z" fill="#080029"/>
</symbol>

<!--ARROWS OF THE SLIDER BUTTONS-->
<symbol id="arrow-prev" viewBox="0 0 29 16">
  <path d="M0.292892 8.7071C-0.0976315 8.31658 -0.0976314 7.68342 0.292893 7.29289L6.65686 0.928931C7.04738 0.538406 7.68054 0.538406 8.07107 0.928931C8.46159 1.31946 8.46159 1.95262 8.07107 2.34314L2.41421 8L8.07107 13.6569C8.46159 14.0474 8.46159 14.6805 8.07107 15.0711C7.68054 15.4616 7.04738 15.4616 6.65685 15.0711L0.292892 8.7071ZM29 9L1 9L1 7L29 7L29 9Z"/>
</symbol>
<symbol id="arrow-next" viewBox="0 0 29 16">
  <path d="M28.7071 8.7071C29.0976 8.31658 29.0976 7.68342 28.7071 7.29289L22.3431 0.928931C21.9526 0.538406 21.3195 0.538406 20.9289 0.928931C20.5384 1.31946 20.5384 1.95262 20.9289 2.34314L26.5858 8L20.9289 13.6569C20.5384 14.0474 20.5384 14.6805 20.9289 15.0711C21.3195 15.4616 21.9526 15.4616 22.3431 15.0711L28.7071 8.7071ZM6.3452e-08 9L28 9L28 7L-6.3452e-08 7L6.3452e-08 9Z"/>
</symbol>

<!--ARROWS OF THE NAVIGATION SLIDER BUTTONS-->
<symbol id="arr-left" viewBox="0 0 9 16">
    <path d="M0.292893 7.29289C-0.0976311 7.68342 -0.0976311 8.31658 0.292893 8.70711L6.65685 15.0711C7.04738 15.4616 7.68054 15.4616 8.07107 15.0711C8.46159 14.6805 8.46159 14.0474 8.07107 13.6569L2.41421 8L8.07107 2.34315C8.46159 1.95262 8.46159 1.31946 8.07107 0.928932C7.68054 0.538408 7.04738 0.538408 6.65685 0.928932L0.292893 7.29289ZM2 7H1L1 9H2L2 7Z"/>
</symbol>
<symbol id="arr-right" viewBox="0 0 9 16">
    <path d="M8.20711 7.29289C8.59763 7.68342 8.59763 8.31658 8.20711 8.70711L1.84315 15.0711C1.45262 15.4616 0.819456 15.4616 0.428932 15.0711C0.0384079 14.6805 0.0384079 14.0474 0.428932 13.6569L6.08579 8L0.428932 2.34315C0.0384079 1.95262 0.0384079 1.31946 0.428932 0.928932C0.819456 0.538408 1.45262 0.538408 1.84315 0.928932L8.20711 7.29289ZM6.5 7H7.5V9H6.5V7Z"/>
</symbol>

<!-- BUTTON ARROW TOP -->
<symbol id="arrow-top" viewBox="0 0 16 19">
    <path d="M8.70711 0.292892C8.31658 -0.0976314 7.68342 -0.0976315 7.29289 0.292892L0.928933 6.65685C0.538409 7.04738 0.538408 7.68054 0.928933 8.07107C1.31946 8.46159 1.95262 8.46159 2.34315 8.07107L8 2.41421L13.6569 8.07107C14.0474 8.46159 14.6805 8.46159 15.0711 8.07107C15.4616 7.68054 15.4616 7.04738 15.0711 6.65686L8.70711 0.292892ZM9 19L9 1L7 1L7 19L9 19Z"/>
</symbol>

</svg>